<svg width="435" height="92" viewBox="0 0 435 92" fill="none" xmlns="http://www.w3.org/2000/svg">
<g style="mix-blend-mode:exclusion">
<path d="M115.268 91.4321C114.783 91.4392 114.334 91.3191 113.97 90.9213C113.902 90.8471 113.848 90.756 113.786 90.6746C113.722 90.696 113.677 90.691 113.682 90.5989C113.683 90.58 113.683 90.5591 113.684 90.5405C112.762 89.2054 112.545 87.0821 112.497 85.2752C112.474 84.3993 113.767 84.7688 115.029 85.154C115.681 84.8563 116.541 85.2611 117.338 85.4245C117.443 85.2403 117.363 84.8952 116.996 84.2948C124.505 83.1354 132.013 81.9447 139.505 80.6159C132.058 80.684 124.61 80.6763 117.164 80.5401C116.245 80.9081 115.357 81.2045 114.957 80.3194C114.654 79.6495 114.785 78.9341 115.072 78.2029H97.836C93.3689 78.7131 88.9076 79.3219 84.4293 79.6485C79.6534 80.0316 74.8702 80.4107 70.0841 80.4341C67.6233 80.4341 67.1625 76.7762 68.7004 75.4047C64.9801 75.0273 61.2598 74.6496 57.5391 74.2772C57.3655 74.5173 57.1958 74.7552 56.9786 75.0151C56.123 76.0392 54.6459 75.0817 53.4818 75.0022C50.8113 74.8193 43.688 73.9136 41.0289 73.589C40.8371 73.3137 40.6266 73.055 40.4232 72.7905C39.6487 72.7468 38.8743 72.7025 38.0993 72.6822C37.9731 72.6789 37.6699 73.0091 37.7579 72.8922C38.206 72.2971 38.6666 71.719 39.1265 71.1392C38.2347 70.0277 37.3745 68.8869 36.7859 67.497C36.5395 66.9153 37.7872 67.1457 38.3 67.1486C39.6067 67.1562 40.9135 67.239 42.2184 67.3391C42.4452 66.6886 42.7131 66.1689 43.0115 65.7419C42.9791 65.3669 42.9541 64.9708 42.9479 64.5344C42.9389 63.893 43.4193 64.1119 44.1007 64.675C46.1202 63.4068 48.9695 64.5759 51.72 64.7789C54.9964 65.0208 58.2709 65.2913 61.5462 65.5558C61.7949 65.3079 62.049 65.0747 62.2723 64.9066C63.2156 64.1965 64.4537 64.8053 65.545 64.7854C66.9466 64.7599 68.3506 64.7628 69.7545 64.7703C67.9829 64.5395 66.2116 64.3095 64.4457 64.0302C62.8769 63.8255 61.3081 63.6211 59.7393 63.4178C58.5139 63.4086 57.3121 63.2899 56.1605 62.9503C56.0668 62.9378 55.973 62.926 55.8794 62.9135C54.4982 62.7268 52.8543 63.2835 51.5477 62.8725C50.9395 62.8457 50.4041 62.6452 50.0369 62.0436C50.0139 62.0063 50.0041 61.9575 49.9833 61.9181C49.602 62.1455 49.0432 61.8699 48.4859 61.5891C47.986 61.6013 47.4373 61.3339 46.8881 61.0654C46.4795 60.9838 46.1892 60.9226 45.8591 60.8555C45.7113 60.8333 45.4637 60.8011 45.3237 60.7797C41.676 60.2232 39.6441 60.7326 38.2096 59.3168C37.7165 59.2421 37.2237 59.1641 36.7306 59.0896C36.3704 59.1327 35.7086 59.3822 35.874 59.0657C35.8905 59.0339 35.9077 58.9981 35.9242 58.9661C35.4444 58.8936 34.965 58.8178 34.4853 58.7454C34.5021 58.5659 34.488 58.4373 34.4905 58.2823C33.3602 58.1888 32.0512 58.095 31.156 58.0139C30.1832 57.9258 29.0148 58.3573 28.0473 58.2412C27.1673 58.4444 26.473 58.3346 26.2136 57.4924C25.9349 56.5876 25.9143 55.4482 26.1182 54.4064C26.1683 53.5203 26.3689 52.6496 26.7155 51.9912C27.0517 51.3528 27.6121 51.3509 28.2782 51.6493C29.2752 51.6384 30.4347 52.3774 31.4621 52.4846C31.7409 51.8271 32.0919 51.2253 32.4476 50.8204C33.2964 49.8543 34.7049 50.978 35.834 51.0563C37.9485 51.2849 40.5807 51.5706 43.1388 51.8635C45.9602 51.7229 48.7861 51.7423 51.6097 51.6969C54.2917 51.6538 56.9736 51.637 59.6557 51.6082C56.6423 50.9319 53.6366 50.1967 50.6343 49.4419C37.8379 48.1997 25.0395 46.9887 12.2398 45.8062C9.97964 45.6163 7.68969 45.7417 5.45865 45.2371C4.83423 45.0959 4.15528 44.9491 3.49275 44.7956C2.94839 45.0621 2.45424 45.2426 2.37177 44.6852C2.36206 44.6201 2.37157 44.5585 2.36852 44.4948C0.104577 43.7929 -1.33206 42.5544 1.83145 39.1884C2.43122 38.5502 3.37251 38.9284 4.1437 38.8097C7.48336 38.2958 11.5072 37.7338 14.7613 37.2688C17.951 36.855 20.6929 36.4893 23.4497 36.1435C22.4648 35.9413 21.7453 35.7915 20.6205 35.5592C16.2729 34.5641 11.8777 33.9632 7.52003 33.0553C6.47303 32.8372 5.25923 33.0821 4.39634 32.2849C3.51199 31.4676 1.89049 29.5082 2.74832 28.6449C3.35728 28.0321 4.17252 27.6025 5.10239 27.2923C5.09495 27.1424 5.11404 26.9929 5.19942 26.8444C5.53898 26.2524 6.13217 26.5146 6.75876 26.8812C11.4504 26.1027 17.9224 27.5339 20.2173 27.7901C30.394 29.1246 40.5661 30.5221 50.7381 31.9127C50.4388 31.6812 50.1437 31.4375 49.838 31.2246C50.2117 30.494 50.5017 29.6655 50.8553 28.9111C50.0582 28.8561 49.0851 28.7909 48.5079 28.751C48.5465 29.3462 48.6382 30.0665 48.8576 31.0752C46.1732 30.7008 43.4885 30.3354 40.8049 29.9521C37.1831 29.4347 33.619 29.5633 30.4768 27.7945C29.7357 27.7319 28.9988 27.6202 28.2699 27.4266C27.8697 27.3202 28.513 27.1315 29.15 26.8985C28.1448 26.1081 27.1894 25.078 26.304 23.687C25.7665 22.8425 27.589 22.0361 28.4272 21.8908C30.5136 21.529 32.6241 21.7868 34.7382 22.1808C34.826 21.7788 35.1562 21.2565 35.8542 20.5685C33.2174 17.0052 36.0431 17.7964 37.2579 18.1101C37.8052 18.1356 38.3534 18.1415 38.9009 18.1577C39.695 17.6463 40.6112 17.8988 41.536 18.2205C43.9719 18.2477 46.4082 18.2351 48.8442 18.2594C47.408 17.6225 46.6284 16.7262 50.7214 14.8423C50.111 13.5764 49.8849 12.6546 50.6897 13.2582C51.5496 13.4411 52.4111 13.6118 53.2713 13.7927C53.5459 13.688 53.7262 13.6016 54.0259 13.4919C56.1865 12.7014 58.502 13.9798 60.7401 14.2147C60.8418 14.2252 63.6071 14.5058 65.8949 14.7406C65.5412 14.6521 65.1878 14.5617 64.8342 14.4723C64.4867 14.3862 64.1388 14.3038 63.7918 14.2147C62.6928 14.1403 61.2858 14.7111 60.648 13.611C60.6199 13.5622 60.6003 13.5226 60.5728 13.4746C59.2226 13.3029 57.4444 13.224 59.241 10.7543C57.981 7.37157 60.2278 7.74636 61.7356 8.07298C62.5414 7.58218 63.6455 8.58111 64.5865 8.72655C67.5965 9.19183 70.7695 9.57284 73.7836 9.95575C74.5283 10.0438 75.2727 10.1302 76.0172 10.2198V9.59439H122.796C123.159 9.27813 123.647 8.92976 124.231 8.55994C124.19 7.76185 124.441 7.36926 125.192 7.99077C125.448 7.84608 125.688 7.70399 125.98 7.55145C127.963 6.51302 130.251 7.91284 132.384 8.12496C134.84 8.36916 137.293 8.6525 139.748 8.91918C139.74 7.19263 140.189 5.35157 141.043 4.02397C141.048 3.98838 141.046 3.96695 141.051 3.93093C141.07 3.78645 141.134 3.74163 141.223 3.75348C141.246 3.72249 141.264 3.68624 141.287 3.65613C141.593 3.25246 142.033 3.28967 142.503 3.4202C142.846 2.40765 143.31 1.50583 144.019 1.00291C144.566 0.615036 153.916 1.98941 153.967 1.99625C156.709 2.44218 158.766 2.76072 161.227 3.2471C161.691 3.16615 162.186 3.26761 162.694 3.45053C163.134 3.41996 163.616 3.34805 163.658 3.79678C163.66 3.81185 163.66 3.82107 163.661 3.83572C164.076 4.0034 164.486 4.15358 164.883 4.21661C167.847 4.68803 170.811 5.17809 173.775 5.64925C188.448 7.98141 183.07 7.15083 198.693 9.34339C199.357 9.43104 200.023 9.50808 200.687 9.59439H220.105C215.905 8.7446 211.337 7.81328 209.906 7.47573C208.504 7.14507 207.121 6.69334 205.728 6.3028C205.271 6.01431 204.149 6.03828 204.356 5.43714C205.03 3.48344 205.651 2.20953 206.299 1.37944C206.17 0.549591 206.237 0.143234 206.639 0.890381C206.661 0.897079 206.686 0.903358 206.709 0.910057C208.418 -0.760544 210.415 0.323212 214.054 0.617905C216.668 0.829597 219.278 1.07922 221.891 1.32123C236.706 2.69376 223.206 1.506 236.181 2.62835C240.109 2.89122 240.947 3.00665 244.56 3.06335C245.426 3.07717 246.294 2.99536 247.16 3.05035C250.399 3.25614 253.626 3.94509 256.832 4.53493C259.89 5.07565 262.909 5.90711 265.898 6.89382C266.97 7.24744 268.027 7.68154 269.109 7.97153C271.36 8.57439 273.627 9.06529 275.889 9.59461H295.733C295.855 9.42371 295.98 9.25495 296.105 9.08606C295.934 8.53777 295.797 7.97835 295.762 7.38723C295.729 6.82617 296.408 7.53971 296.931 7.90662C297.099 7.66138 297.277 7.42163 297.425 7.16431C304.871 7.57606 312.292 8.50706 319.726 9.16613C319.658 8.9438 319.635 8.71406 319.713 8.46494C320.757 5.09782 324.372 5.64056 326.333 5.62347C328.83 5.6017 331.415 5.58621 333.906 5.75767C335.497 5.86726 337.085 6.06618 338.674 6.22079C344.524 6.86593 350.292 8.24821 356.063 9.59461H365.871V11.4081C366.067 11.05 366.584 11.5212 366.918 11.6656C367.061 11.7274 367.293 11.7933 367.505 11.8604C369.02 12.2087 370.535 12.5528 372.044 12.9273C377.677 13.9481 383.323 14.8133 388.954 15.8446C388.964 15.8457 396.331 17.211 397.019 17.4893C397.61 17.7282 398.072 18.3334 398.598 18.7553C397.602 19.9848 396.812 21.6393 395.782 22.8C395.766 22.7967 395.718 22.7861 395.702 22.7828C395.712 22.8075 395.715 22.8384 395.725 22.8629C395.728 22.8635 395.726 22.8623 395.731 22.8629C395.586 23.0227 395.432 23.1652 395.276 23.3022C396.268 23.5725 397.319 23.8353 397.635 24.9339C398.022 26.2782 397.238 27.6513 396.688 29.0176C397.277 29.0641 397.438 29.0738 398.845 29.1842C399.456 29.2322 399.978 29.2601 400.511 29.2946C400.758 29.221 400.984 29.1778 401.077 29.3314C401.803 29.4018 402.52 29.5406 403.295 29.8551C403.42 29.307 403.617 28.8219 403.976 28.4766C405.177 27.3227 406.966 28.6145 408.46 28.7125C415.1 29.148 421.73 29.8347 428.352 30.5844C428.93 30.7726 430.017 30.3835 430.087 31.1493C430.169 32.0499 430.171 33.0563 430.05 34.0124C430.976 34.1446 431.904 34.2679 432.827 34.4301C433.455 34.5402 434.746 34.0641 434.695 34.8802C434.614 36.1629 434.072 37.2743 433.495 38.3731C433.705 39.0013 433.876 39.6408 433.897 40.3229C433.913 40.8896 433.205 40.3355 432.658 40.0676C432.589 40.2199 432.506 40.367 432.444 40.522C427.729 40.4483 423.016 40.2643 418.303 40.0589C418.428 40.396 418.555 40.727 418.706 41.0284C418.316 41.152 417.93 41.3029 417.542 41.4439C418.729 41.5587 419.915 41.6786 421.097 41.8486C422.09 41.9913 424.317 41.3659 424.037 42.606C423.678 44.1981 423.128 45.3962 422.454 46.3153C422.598 46.6045 422.734 46.9207 422.867 47.2524C425.289 47.6401 428.13 48.4234 422.871 49.9727C423.728 50.5351 424.311 50.9909 424.658 51.3534C425.148 51.2488 425.517 51.3261 425.564 51.8987C425.587 52.1892 425.574 52.429 425.571 52.6843C426.171 53.8073 426.347 55.3219 425.742 57.4345C425.315 58.9237 423.289 57.6452 422.061 57.6271C418.554 57.5754 415.056 57.3718 411.559 57.112C411.742 57.3604 411.921 57.5879 412.111 57.8586C412.675 58.6652 410.457 57.4366 409.619 57.3328C408.992 57.255 408.363 57.1965 407.736 57.125C407.309 57.3275 406.88 57.5024 406.446 57.6336C407.09 58.6878 406.901 60.0429 405.069 61.78C405.375 62.5296 405.307 63.5561 404.47 65.0045C403.634 66.4487 401.741 65.84 400.349 65.9416C398.566 66.0716 396.781 65.7759 394.996 65.6949C394.227 65.6601 393.458 65.6255 392.689 65.591C392.702 65.6115 392.712 65.6352 392.726 65.6559C393.034 65.7049 393.224 65.7377 394.122 65.8377C394.043 66.0307 393.99 66.2517 393.924 66.4588C395.246 66.7379 396.568 67.0075 397.891 67.2768C399.53 67.5688 401.168 67.8654 402.807 68.1576C405.966 68.722 413.695 70.1132 417.252 70.7134C418.053 70.8486 419.131 70.3903 419.822 70.7482C420.449 70.6046 420.922 70.6703 421 71.2567C421.183 72.6398 421.124 74.3128 420.63 75.5914C420.56 75.9862 420.484 76.3783 420.383 76.7384C420.27 77.1389 419.982 77.1635 419.601 76.9829C418.79 77.3054 417.668 76.3693 416.745 76.2147C416.409 76.1583 415.689 76.0253 415.256 75.9506C415.257 75.9598 415.257 75.9653 415.258 75.9745C409.762 75.1677 404.285 74.1714 398.82 73.0789C398.913 73.7059 398.927 74.3256 398.761 74.9292C398.459 76.0252 396.984 75.3211 396.086 75.3815C394.136 75.5127 392.183 75.5206 390.231 75.5027C389.414 75.4952 388.595 75.4663 387.777 75.4508C387.787 75.7035 387.77 75.9578 387.73 76.2147C387.555 77.302 386.019 76.4164 385.16 76.4333C384.436 76.4475 383.712 76.4363 382.988 76.4311C382.823 76.5898 382.673 76.7447 382.48 76.9115C382.12 77.2217 381.726 77.3971 381.317 77.5153C382.213 77.6865 383.11 77.8585 384.002 78.0628C386.343 78.5988 392.998 78.2439 388.843 85.1568C388.23 86.1765 386.844 85.2278 385.846 85.1848C385.713 85.179 385.555 85.1652 385.419 85.1589C385.179 85.2643 384.878 85.3026 384.554 85.3168C384.164 86.0134 383.227 85.412 382.503 85.319C379.401 85.4025 376.302 85.569 373.206 85.8319C366.685 86.3813 360.163 86.9831 353.627 87.1217C341.469 87.375 329.311 87.772 317.152 87.7471C303.93 87.5465 290.715 87.0531 277.509 86.2517C277.442 87.2568 276.003 87.1552 275.202 87.258C273.231 87.5109 271.241 87.3442 269.262 87.2668C264.321 87.0741 259.582 86.6074 254.748 86.122C254.613 86.4016 253.772 86.3861 253.384 86.4077C252.176 86.4749 250.967 86.2678 249.759 86.1869C249.717 86.184 246.743 85.9886 243.886 85.7671C243.876 85.7939 243.863 85.8187 243.851 85.845C243.838 86.1074 243.831 86.3644 243.844 86.6133C243.7 86.586 243.554 86.5624 243.409 86.5354C243.393 86.5529 243.38 86.5768 243.362 86.5938C242.215 87.6504 240.562 86.201 239.161 86.016C235.796 85.5714 232.428 85.1276 229.061 84.6937C229.048 84.9603 229.011 85.2257 228.932 85.4879C228.564 86.7002 226.923 85.2986 225.922 85.1633C225.912 85.1621 223.241 84.7572 220.626 84.3539C220.574 84.3552 220.521 84.3547 220.469 84.3561C213.868 84.5344 207.269 84.7866 200.671 85.1092C195.519 85.3813 190.368 85.6709 185.218 85.99C185.159 86.0135 185.1 86.0333 185.041 86.0571C184.279 86.3644 183.441 87.6353 182.777 87.0721C181.741 87.634 180.684 88.1287 180.55 86.3125C176.812 86.5591 173.074 86.8002 169.337 87.0915C158.288 87.9529 157.502 88.0995 146.611 89.0739C142.81 89.414 139.007 89.7387 135.206 90.0715C128.519 90.547 124.229 90.9755 117.784 91.0497C116.989 91.0589 116.079 91.4211 115.271 91.4327L115.268 91.4321ZM395.728 22.8624C395.748 22.8423 395.764 22.82 395.782 22.7996C396.63 22.9828 396.643 23.0025 395.728 22.8624ZM159.341 82.3666C161.898 82.14 164.365 81.9255 169.06 81.5594C169.91 81.4932 170.76 81.4457 171.61 81.382C171.605 80.7992 171.638 80.1997 171.664 79.6031C171.556 79.2773 171.496 78.9387 171.473 78.5881C171.245 78.5868 171.017 78.5865 170.789 78.586C170.64 78.9134 170.43 79.3067 170.23 79.6897C170.233 79.85 170.253 80.0154 170.25 80.1722C170.242 80.5238 170.043 80.6126 169.741 80.5618C169.082 81.3908 167.761 80.8206 166.798 80.9989C156.179 82.9664 161.322 81.9869 159.341 82.3666ZM68.3223 41.0387C68.32 40.6481 68.3225 40.2563 68.354 39.8679C65.4429 39.4737 62.5312 39.0814 59.6204 38.6842C59.2512 38.7005 58.882 38.7143 58.5128 38.7318C61.1118 39.4112 63.7062 40.1143 66.3011 40.818C66.4977 40.8372 67.9615 40.9864 68.3222 41.0387H68.3223ZM65.7976 31.4258C65.9634 30.9724 66.1524 30.5348 66.3581 30.11C65.7372 30.1066 65.1353 30.0306 64.5729 29.8114C62.3603 29.6728 60.9991 29.6002 58.0912 29.4045C58.0873 29.4204 58.0851 29.4359 58.0812 29.4521C58.802 29.6839 59.5215 29.938 60.2462 30.11C61.5697 30.4242 63.7341 30.9186 65.7976 31.4258ZM249.135 9.5943H253.966C251.709 9.15987 249.443 8.73506 247.174 8.5923C246.27 8.53535 245.363 8.61785 244.457 8.6032C244.032 8.59608 243.858 8.57934 243.499 8.57054C245.376 8.92303 247.257 9.25031 249.135 9.59417V9.5943ZM157.347 8.25689C157.3 8.21178 157.265 8.15948 157.228 8.10755C156.667 8.015 156.019 7.90871 155.421 7.81322C156.063 7.96068 156.705 8.11034 157.347 8.25685V8.25689ZM323.813 6.28322C323.475 6.08455 322.951 5.97697 322.141 6.0127C322.697 6.11203 323.256 6.18824 323.813 6.28322Z" fill="#908EFC"/>
</g>
</svg>
