<svg width="20" height="20" viewBox="0 0 20 20" fill="none" xmlns="http://www.w3.org/2000/svg">
<path d="M17.5472 5.98396C17.5549 6.15996 17.5549 6.32796 17.5549 6.50396C17.5626 11.84 13.6422 18 6.47283 18C4.35829 18 2.28233 17.368 0.499634 16.184C0.808326 16.224 1.11702 16.24 1.42571 16.24C3.17754 16.24 4.88306 15.632 6.26446 14.504C4.59752 14.472 3.13123 13.344 2.62189 11.696C3.20841 11.816 3.81036 11.792 4.38144 11.624C2.56787 11.256 1.26365 9.59997 1.25593 7.67197C1.25593 7.65597 1.25593 7.63997 1.25593 7.62397C1.79614 7.93597 2.40581 8.11197 3.02319 8.12797C1.31767 6.94396 0.785174 4.58396 1.81929 2.73595C3.80264 5.26396 6.71978 6.79196 9.85301 6.95996C9.5366 5.55996 9.96877 4.08796 10.9797 3.09595C12.5463 1.56795 15.0159 1.64795 16.4976 3.27195C17.3697 3.09595 18.2108 2.75995 18.9749 2.28795C18.6816 3.22395 18.0719 4.01596 17.2616 4.51996C18.0333 4.42396 18.7896 4.20796 19.4996 3.88795C18.9749 4.70396 18.3112 5.40796 17.5472 5.98396Z" fill="white"/>
</svg>
