<svg width="22" height="20" viewBox="0 0 22 20" fill="none" xmlns="http://www.w3.org/2000/svg">
<g clip-path="url(#clip0_471_1893)">
<path d="M21.1238 13.3704L21.1238 13.3704L13.0103 5.27376C11.9017 4.16517 10.0982 4.16533 8.98917 5.27434L0.876213 13.3704L1.2294 13.7243L0.876209 13.3704C0.625523 13.6206 0.499985 13.9498 0.499985 14.2773C0.499985 14.604 0.624784 14.9324 0.874355 15.1824C1.3742 15.6833 2.18538 15.6841 2.68624 15.1843L2.68626 15.1843L10.8002 7.08725L10.8005 7.08688C10.9107 6.9767 11.0898 6.97719 11.1989 7.08629L11.1992 7.08666L19.3137 15.1843L19.3137 15.1843C19.8146 15.6841 20.6258 15.6833 21.1256 15.1824L21.1238 13.3704ZM21.1238 13.3704C21.6247 13.8703 21.6255 14.6815 21.1257 15.1824L21.1238 13.3704Z" fill="white" stroke="white"/>
</g>
<defs>
<clipPath id="clip0_471_1893">
<rect width="20" height="22" fill="white" transform="matrix(0 -1 -1 0 22 20)"/>
</clipPath>
</defs>
</svg>
